<?xml version="1.0" encoding="UTF-8" standalone="no"?><!DOCTYPE svg PUBLIC "-//W3C//DTD SVG 1.1//EN" "http://www.w3.org/Graphics/SVG/1.1/DTD/svg11.dtd"><svg width="100%" height="100%" viewBox="0 0 2362 2500" version="1.1" xmlns="http://www.w3.org/2000/svg" xmlns:xlink="http://www.w3.org/1999/xlink" xml:space="preserve" xmlns:serif="http://www.serif.com/" style="fill-rule:evenodd;clip-rule:evenodd;stroke-linejoin:round;stroke-miterlimit:1.41421;"><path d="M1976.4,1065.55l-576.3,0c-28.732,-0.011 -52.373,-23.648 -52.388,-52.381l0,-600.614c0,-44.477 -36.065,-80.556 -80.522,-80.556l-205.725,0c-44.484,0 -80.529,36.079 -80.529,80.556l0,596.977c0,30.972 -25.039,56.147 -56.011,56.282l-188.86,0.901c-31.236,0.17 -56.614,-25.174 -56.553,-56.384l1.172,-597.641c0.101,-44.544 -35.978,-80.691 -80.523,-80.691l-205.555,0c-44.491,0 -80.529,36.079 -80.529,80.556l0,1681.8c0,39.513 32.009,71.521 71.487,71.521l1590.84,0c39.512,0 71.521,-32.008 71.521,-71.521l0,-957.285c0,-39.512 -32.009,-71.521 -71.521,-71.521Zm-270.25,631.451c0,51.778 -41.978,93.763 -93.756,93.763l-162.582,0c-51.785,0 -93.763,-41.985 -93.763,-93.763l0,-162.581c0,-51.786 41.978,-93.763 93.763,-93.763l162.582,0c51.778,0 93.756,41.977 93.756,93.763l0,162.581Z" style="fill:#f60;fill-rule:nonzero;"/></svg>